<svg width="88" height="1165" viewBox="0 0 88 1165" fill="none" xmlns="http://www.w3.org/2000/svg">
<g filter="url(#filter0_d)">
<rect width="64" height="1165" fill="white"/>
<path fill-rule="evenodd" clip-rule="evenodd" d="M32 20.8731C28.0381 20.8731 24.8264 24.0904 24.8264 28.0592C24.8264 28.9333 24.8391 29.3 24.945 29.7109C25.0547 30.1363 25.292 30.6985 25.9217 31.8144C26.1357 32.1937 26.737 32.9388 27.6832 33.9641C28.5884 34.9451 29.6982 36.0659 30.8117 37.1592C31.9228 38.2502 33.0258 39.3022 33.9141 40.1444C34.1389 40.3576 34.3527 40.5598 34.5505 40.747C35.1173 41.2832 35.5537 41.6961 35.7472 41.89C36.6204 42.7648 37.2452 43.1269 37.9835 43.1269C39.4806 43.1269 40.6942 41.9112 40.6942 40.4114C40.6942 39.8419 40.521 39.3578 40.1817 38.8882C39.6465 38.1474 39.812 37.1122 40.5515 36.576C41.291 36.0399 42.3244 36.2057 42.8596 36.9465C43.5602 37.9161 44 39.0685 44 40.4114C44 43.7401 41.3063 46.4385 37.9835 46.4385C35.8904 46.4385 34.4535 45.2774 33.4095 44.2315C33.252 44.0737 32.8762 43.718 32.336 43.207C32.1279 43.0101 31.8955 42.7901 31.6417 42.5495C30.7486 41.7028 29.6294 40.6354 28.4977 39.5242C27.3683 38.4153 26.2145 37.2511 25.2556 36.212C24.3377 35.2173 23.4745 34.2072 23.0439 33.4441C22.3841 32.2749 21.9668 31.4023 21.7442 30.539C21.5206 29.6715 21.5206 28.9037 21.5207 28.0886L21.5207 28.0592C21.5207 22.2615 26.2124 17.5615 32 17.5615C37.7876 17.5615 42.4793 22.2615 42.4793 28.0592C42.4793 30.0752 41.9104 31.9631 40.9239 33.5649C40.6234 34.0527 40.0943 34.6667 39.5777 35.2315C39.0307 35.8293 38.3912 36.4854 37.7888 37.088C37.1845 37.6926 36.6079 38.253 36.183 38.6618C35.9703 38.8664 35.795 39.0335 35.6726 39.1498C35.6114 39.208 35.5633 39.2535 35.5304 39.2846C35.5139 39.3002 35.5012 39.3122 35.4925 39.3204L35.4798 39.3324L35.479 39.3331L35.4788 39.3333C35.4788 39.3333 35.4787 39.3334 34.3471 38.1265C33.2156 36.9195 33.2155 36.9195 33.2155 36.9195L33.216 36.9191L33.2267 36.909C33.2345 36.9017 33.2462 36.8906 33.2617 36.8759C33.2928 36.8466 33.3388 36.803 33.3978 36.7469C33.516 36.6347 33.6862 36.4723 33.8934 36.2731C34.3081 35.8741 34.8684 35.3295 35.4528 34.7448C36.0392 34.1583 36.6404 33.5408 37.1406 32.994C37.6712 32.414 37.9959 32.0122 38.1105 31.826C38.7844 30.7319 39.1736 29.4436 39.1736 28.0592C39.1736 24.0905 35.9618 20.8731 32 20.8731ZM23.4485 36.576C24.188 37.1122 24.3535 38.1474 23.8183 38.8882C23.479 39.3578 23.3058 39.8419 23.3058 40.4114C23.3058 41.9112 24.5194 43.1269 26.0165 43.1269C26.7374 43.1269 27.4228 42.7544 28.4841 41.6912L30.8217 44.0328C29.6351 45.2215 28.1271 46.4385 26.0165 46.4385C22.6937 46.4385 20 43.7401 20 40.4114C20 39.0685 20.4398 37.9161 21.1404 36.9465C21.6756 36.2057 22.709 36.0399 23.4485 36.576Z" fill="#0180FF"/>
<path d="M30 148V142H34V148H39V140H42L32 131L22 140H25V148H30Z" fill="#7B818A"/>
<path d="M25 225.2H28V235H25V225.2ZM30.6 221H33.4V235H30.6V221ZM36.2 229H39V235H36.2V229Z" fill="#7B818A"/>
<path d="M16 1133C16 1124.16 23.1634 1117 32 1117C40.8366 1117 48 1124.16 48 1133C48 1141.84 40.8366 1149 32 1149C23.1634 1149 16 1141.84 16 1133Z" fill="#C5C5C5"/>
</g>
<defs>
<filter id="filter0_d" x="-12" y="-18" width="100" height="1201" filterUnits="userSpaceOnUse" color-interpolation-filters="sRGB">
<feFlood flood-opacity="0" result="BackgroundImageFix"/>
<feColorMatrix in="SourceAlpha" type="matrix" values="0 0 0 0 0 0 0 0 0 0 0 0 0 0 0 0 0 0 127 0" result="hardAlpha"/>
<feOffset dx="6"/>
<feGaussianBlur stdDeviation="9"/>
<feColorMatrix type="matrix" values="0 0 0 0 0 0 0 0 0 0 0 0 0 0 0 0 0 0 0.06 0"/>
<feBlend mode="normal" in2="BackgroundImageFix" result="effect1_dropShadow"/>
<feBlend mode="normal" in="SourceGraphic" in2="effect1_dropShadow" result="shape"/>
</filter>
</defs>
</svg>
